PathFileType	4	(X/Y/Z)	P:\Projects\LMB_grand_challenge_database\project_only\opensim\experimental_data\SixthCompetition/DM_ngait_og9_new.trc
DataRate	CameraRate	NumFrames	NumMarkers	Units	OrigDataRate	OrigDataStartFrame	OrigNumFrames
120	120	4	68	mm	120	0	369
Frame#	Time	Sternum			Neck			R_Shoulder			L_Shoulder			Xiphoid			Thoracic			R_Asis			L_Asis			R_Psis			L_Psis			Lumbar			R_Elbow			R_ElbowMedial			R_ShoulderAnterior			R_ShoulderPosterior			R_Wrist			R_Radius			R_Ulna			L_Elbow			L_ElbowMedial			L_ShoulderAnterior			L_ShoulderPosterior			L_Wrist			L_Ulna			L_Radius			L_Thigh_Superior			L_Thigh_Inferior			L_Thigh_Lateral			L_Knee_Lateral			L_Knee_Medial			L_Patella			L_Shank_Superior			L_Shank_Inferior			L_Shank_Lateral			L_Ankle_Lateral			L_Ankle_Medial			R_Thigh_Superior			R_Thigh_Inferior			R_Thigh_Lateral			R_Knee_Lateral			R_Knee_Medial			R_Patella			R_Shank_Superior			R_Shank_Inferior			R_Shank_Lateral			R_Ankle_Lateral			RankleMedial			R_Heel			R_Toe			R_Midfoot_Medial			R_Midfoot_Lateral			R_Hindfoot			R_Midfoot_Superior			R_ToeMedial			R_ToeLateral			L_Heel			L_Toe			L_Midfoot_Medial			L_Midfoot_Lateral			L_Hindfoot			L_Midfoot_Superior			L_ToeMedial			L_ToeLateral			Oglobal			Sacral			Xglobal			Yglobal			Zglobal			
		X1	Y1	Z1	X2	Y2	Z2	X3	Y3	Z3	X4	Y4	Z4	X5	Y5	Z5	X6	Y6	Z6	X7	Y7	Z7	X8	Y8	Z8	X9	Y9	Z9	X10	Y10	Z10	X11	Y11	Z11	X12	Y12	Z12	X13	Y13	Z13	X14	Y14	Z14	X15	Y15	Z15	X16	Y16	Z16	X17	Y17	Z17	X18	Y18	Z18	X19	Y19	Z19	X20	Y20	Z20	X21	Y21	Z21	X22	Y22	Z22	X23	Y23	Z23	X24	Y24	Z24	X25	Y25	Z25	X26	Y26	Z26	X27	Y27	Z27	X28	Y28	Z28	X29	Y29	Z29	X30	Y30	Z30	X31	Y31	Z31	X32	Y32	Z32	X33	Y33	Z33	X34	Y34	Z34	X35	Y35	Z35	X36	Y36	Z36	X37	Y37	Z37	X38	Y38	Z38	X39	Y39	Z39	X40	Y40	Z40	X41	Y41	Z41	X42	Y42	Z42	X43	Y43	Z43	X44	Y44	Z44	X45	Y45	Z45	X46	Y46	Z46	X47	Y47	Z47	X48	Y48	Z48	X49	Y49	Z49	X50	Y50	Z50	X51	Y51	Z51	X52	Y52	Z52	X53	Y53	Z53	X54	Y54	Z54	X55	Y55	Z55	X56	Y56	Z56	X57	Y57	Z57	X58	Y58	Z58	X59	Y59	Z59	X60	Y60	Z60	X61	Y61	Z61	X62	Y62	Z62	X63	Y63	Z63	X64	Y64	Z64	X65	Y65	Z65	X66	Y66	Z66	X67	Y67	Z67	X68	Y68	Z68	

1	2.425	-1375.02	1384.28	234.419	-1537.4	1462.33	262.392	-1416.34	1408.13	413.428	-1493.26	1432.14	75.92659999999999	-1357.32	1216.67	231.872	-1626.22	1276.08	259.569	-1436.27	989.533	377.624	-1447.74	982.275	97.73260000000001	-1641.71	1029.84	276.614	-1645.28	1024.35	198.195	-1642.37	1077.01	237.66	-1441.23	1099.76	526.376	-0	0	0	-0	0	0	-0	0	0	-1350.59	836.904	498.94	-1352.05	849.538	455.745	-1396.77	834.0170000000001	512.665	-1542.6	1095.93	-21.1379	-0	0	0	-0	0	0	-0	0	0	-1470.73	837.705	-20.8599	-1518.54	844.771	-28.5193	-1465.96	853.207	23.8356	-1464.6	824.0549999999999	61.4158	-1343	632.71	87.83320000000001	-1335.21	732.4160000000001	116.052	-0	0	0	-0	0	0	-1269.31	541.926	129.245	-1363.91	479.274	71.8087	-1461.35	226.751	67.2266	-1378.84	333.374	137.475	-0	0	0	-0	0	0	-1523.07	804.544	402.248	-1523.18	588.937	358.185	-1444.82	711.71	373.521	-0	0	0	-0	0	0	-1457.77	498.167	281.554	-1579.93	395.049	370.359	-1605.94	188.772	353.835	-1531.77	302.272	282.691	-0	0	0	-0	0	0	-1705.52	59.7983	301.276	-1405.69	51.0894	302.018	-1483.53	27.8332	251.113	-1494.82	26.892	367.836	-1605.53	25.229	355.201	-1543.1	116.024	304.521	-1437.89	39.2069	260.923	-1446.11	38.4624	350.59	-1561.45	129.068	120.928	-1274.36	43.646	101.266	-1355.65	43.0608	158.576	-1372.35	47.9489	45.4235	-1468.34	72.2315	59.1969	-1384.45	141.402	107.799	-1313.84	32.102	145.237	-1316.09	38.4436	50.4178	-0	0	0	-1643.5	1027.09	237.405	-200	0	0	-0	0	200	-0	200	0	
2	2.433333	-1366.19	1383.44	233.463	-1528.41	1461.85	261.821	-1406.95	1407.61	412.706	-1485.36	1431.21	75.236	-1349.04	1215.7	230.875	-1617.69	1275.79	259.603	-1427.12	992.188	376.993	-1439.24	981.716	97.13639999999999	-1633.2	1027.9	275.538	-1636.44	1025.29	197.586	-1634.22	1076.55	236.546	-1431.05	1099.34	526.0309999999999	-0	0	0	-0	0	0	-0	0	0	-1338.95	837.394	498.674	-1340.32	849.615	455.225	-1384.72	834.039	512.202	-1540.08	1095.97	-21.6715	-0	0	0	-0	0	0	-0	0	0	-1471.41	836.7430000000001	-23.3251	-1519.43	844.283	-30.1508	-1465.47	852.278	21.1032	-1456.72	823.4880000000001	60.7775	-1335.66	632.216	89.22880000000001	-1327.87	732.021	117.024	-0	0	0	-0	0	0	-1264.12	544.013	130.24	-1354.14	478.075	71.7043	-1437.56	220.295	65.2064	-1361.08	330.928	136.283	-0	0	0	-0	0	0	-1516.46	804.361	402.166	-1519.12	588.77	358.136	-1439.24	710.753	373.311	-0	0	0	-0	0	0	-1454.65	497.112	281.906	-1577.66	395.151	370.294	-1605.13	188.943	353.91	-1530.04	302.546	282.823	-0	0	0	-0	0	0	-1705.43	60.0067	301.267	-1405.55	50.8293	301.979	-1483.49	27.7042	251.147	-1494.8	26.7598	367.867	-1605.53	25.2239	355.239	-1542.95	115.971	304.556	-1437.99	39.1514	260.932	-1445.94	38.3755	350.455	-1532.72	117.839	118.631	-1241.58	46.9429	98.0427	-1322.97	41.7011	155.697	-1340.11	46.0182	42.5878	-1436.6	65.49120000000001	56.3673	-1356.41	138.672	105.178	-1280.07	32.9738	141.807	-1282.44	39.6198	47.2384	-0	0	0	-1634.82	1026.59	236.562	-200	0	0	-0	0	200	-0	200	0	
3	2.441667	-1357.55	1382.51	232.293	-1519.39	1461.29	261.279	-1397.71	1406.92	411.807	-1477.34	1430.21	74.4434	-1340.5	1214.72	230.205	-1609	1275.39	259.36	-1418.88	991.386	376.848	-1431.6	980.812	96.74469999999999	-1625.03	1027.64	275.715	-1628.47	1025	197.59	-1626.02	1076.28	236.636	-1420.93	1098.75	525.78	-0	0	0	-0	0	0	-0	0	0	-1326.97	837.645	498.239	-1328.72	849.523	454.829	-1373.13	834.08	512.062	-1537.04	1095.95	-22.2702	-0	0	0	-0	0	0	-0	0	0	-1472.45	835.956	-25.8237	-1520.07	843.667	-31.7864	-1465.56	850.999	18.3127	-1449.27	823.027	59.9383	-1329.17	631.6180000000001	90.5055	-1320.76	731.408	117.6	-0	0	0	-0	0	0	-1265.29	545.885	130.27	-1343.84	475.838	71.81740000000001	-1413.48	214.03	63.255	-1343.71	328.402	134.927	-0	0	0	-0	0	0	-1509.54	803.88	401.638	-1514.79	588.365	357.934	-1434.06	710.039	373.507	-0	0	0	-0	0	0	-1451.12	496.086	281.941	-1575.54	395.147	370.701	-1604.38	189.109	353.971	-1528.03	302.501	282.556	-0	0	0	-0	0	0	-1705.38	60.1932	301.297	-1405.44	50.6634	301.9	-1483.52	27.5977	250.996	-1494.76	26.501	367.721	-1605.49	25.2132	355.127	-1542.74	115.906	304.572	-1437.96	39.0626	260.87	-1445.93	38.2633	350.543	-1503.62	107.259	116.313	-1208.82	50.9836	94.60939999999999	-1290.34	41.4049	152.965	-1307.84	45.0212	39.8866	-1404.9	59.5236	53.5931	-1328.41	136.715	102.612	-1246.41	34.988	138.531	-1249.2	41.8979	43.8705	-0	0	0	-1626.75	1026.32	236.652	-200	0	0	-0	0	200	-0	200	0	
4	2.45	-1348.56	1381.6	231.38	-1510.21	1460.55	260.557	-1388.33	1406.04	410.876	-1469.08	1429.18	73.60250000000001	-1332.1	1213.45	229.44	-1600.25	1274.92	259.034	-1410.79	990.441	376.531	-1423.82	979.938	96.3147	-1616.93	1027.19	275.564	-1620.46	1024.52	197.436	-1617.88	1075.83	236.479	-1410.86	1098.01	525.331	-0	0	0	-0	0	0	-0	0	0	-1314.86	837.566	497.585	-1317.69	849.38	454.203	-1361.13	834.04	511.804	-1533.7	1095.89	-22.898	-0	0	0	-0	0	0	-0	0	0	-1472.82	834.792	-27.8827	-1520.75	843.379	-33.1566	-1465.29	850.035	15.978	-1442.11	822.327	58.9637	-1323.09	630.547	91.7431	-1313.98	730.528	117.775	-0	0	0	-0	0	0	-1262.7	544.299	130.301	-1335.2	474.107	71.6253	-1389.73	208.469	61.3884	-1326.29	326.257	133.585	-0	0	0	-0	0	0	-1502.5	803.4349999999999	401.338	-1510.51	588.165	357.608	-1428.47	708.976	373.038	-0	0	0	-0	0	0	-1448.42	494.832	282.09	-1572.9	395.073	370.427	-1603.56	189.325	353.923	-1526.01	302.308	282.824	-0	0	0	-0	0	0	-1705.33	60.3619	301.309	-1405.4	50.5201	301.944	-1483.61	26.9355	250.917	-1494.77	26.1204	367.652	-1605.44	25.21	355.128	-1542.39	115.586	304.352	-1437.92	38.8288	260.847	-1445.87	38.1684	350.549	-1471.18	95.65009999999999	113.763	-1176.17	56.0532	91.2658	-1254.21	42.2613	149.005	-1272.39	45.8242	36.0321	-1373.1	53.8679	50.6134	-1300.3	135.069	99.84059999999999	-1212.84	37.6762	135.099	-1216.76	44.9223	40.463	-0	0	0	-1618.69	1025.86	236.5	-200	0	0	-0	0	200	-0	200	0	
